<svg xmlns="http://www.w3.org/2000/svg" width="413" height="412" fill="none" viewBox="0 0 413 412"><path fill="url(#paint0_linear_1_4)" fill-rule="evenodd" d="M400.231 267.2C401.497 267.874 402.091 269.358 401.641 270.72C398.523 280.149 394.742 289.277 390.354 298.048C389.664 299.427 388.032 300.034 386.593 299.481C361.668 289.903 332.7 283.501 300.611 283.501C262.739 283.501 233.866 296.53 206.786 308.75C205.282 309.429 203.783 310.105 202.289 310.776C173.774 323.588 145.48 335.417 105.207 335.417C77.8822 335.417 55.1923 330.238 36.7548 322.615C36.2222 322.394 35.7683 322.023 35.4446 321.546C26.5194 308.397 19.0749 294.161 13.3507 279.078C12.3931 276.554 15.0631 274.218 17.51 275.356C40.8722 286.228 69.9883 293.692 105.207 293.692C152.127 293.692 185.273 279.712 214.534 266.694C215.651 266.197 216.76 265.702 217.863 265.211C245.752 252.781 269.304 242.285 300.611 242.285C339.864 242.285 373.815 253.13 400.231 267.2ZM300.611 313.501C325.956 313.501 349.091 318.07 369.415 325.136C371.29 325.788 371.983 328.062 370.79 329.65C362.984 340.037 354.217 349.662 344.623 358.393C343.937 359.018 342.998 359.281 342.084 359.12C328.953 356.806 315.1 355.501 300.611 355.501C262.739 355.501 233.866 368.53 206.786 380.75C205.282 381.429 203.783 382.105 202.289 382.776C184.604 390.722 167.005 398.29 146.58 402.892C146.076 403.005 145.55 402.985 145.057 402.832C121.622 395.583 99.9751 384.264 80.9424 369.7C78.5528 367.872 80.1753 364.115 83.1708 364.398C90.232 365.063 97.5763 365.417 105.207 365.417C152.159 365.417 185.325 351.287 214.584 338.141C215.698 337.641 216.804 337.143 217.904 336.648C245.803 324.091 269.334 313.501 300.611 313.501ZM214.584 410.141C213.696 410.54 213.996 411.85 214.97 411.809C246.054 410.479 275.355 402.26 301.383 388.641C302.977 387.807 302.41 385.501 300.611 385.501C269.334 385.501 245.803 396.091 217.904 408.648C216.804 409.143 215.698 409.641 214.584 410.141ZM410.105 234.149C409.83 236.164 407.651 237.285 405.82 236.401C377.032 222.502 341.333 212.285 300.611 212.285C262.769 212.285 233.918 225.177 206.83 237.28C205.328 237.951 203.832 238.62 202.339 239.284C173.826 251.969 145.512 263.692 105.207 263.692C57.4752 263.692 23.8929 248.059 2.41027 231.221C1.78927 230.734 1.39675 230.022 1.30872 229.238C0.452391 221.61 0.0125885 213.856 0.0125885 206C0.0125885 203.886 0.0444183 201.78 0.107625 199.682C0.176051 197.411 2.67492 196.089 4.64592 197.22C29.8769 211.701 63.1981 222.417 105.207 222.417C152.159 222.417 185.325 208.287 214.584 195.141C215.698 194.641 216.804 194.143 217.904 193.648C245.803 181.091 269.334 170.501 300.611 170.501C342.43 170.501 378.232 182.94 405.319 198.51C407.123 199.547 408.884 200.595 410.6 201.651C411.465 202.183 411.995 203.122 412.004 204.138C412.01 204.758 412.013 205.379 412.013 206C412.013 215.549 411.363 224.945 410.105 234.149ZM206.013 0C108.201 0 26.3109 68.1696 5.2617 159.59C4.99863 160.733 5.43219 161.924 6.3775 162.618C27.9454 178.442 60.3233 192.417 105.207 192.417C145.48 192.417 173.774 180.588 202.289 167.776C203.783 167.105 205.282 166.429 206.786 165.75C233.866 153.53 262.739 140.501 300.611 140.501C339.843 140.501 374.41 150.071 402.627 163.313C404.883 164.372 407.41 162.424 406.856 159.993C385.955 68.3702 303.968 0 206.013 0Z" clip-rule="evenodd"/><mask id="mask0_1_4" style="mask-type:alpha" width="413" height="412" x="0" y="0" maskUnits="userSpaceOnUse"><path fill="url(#paint1_linear_1_4)" fill-rule="evenodd" d="M398.778 266.433C400.896 267.54 401.886 270.017 401.118 272.28C398.3 280.579 394.967 288.639 391.157 296.425C390.028 298.733 387.306 299.742 384.901 298.838C360.36 289.618 331.976 283.501 300.611 283.501C262.739 283.501 233.866 296.53 206.786 308.75C205.282 309.429 203.783 310.105 202.289 310.776C173.774 323.588 145.48 335.417 105.207 335.417C78.1509 335.417 55.6389 330.339 37.2998 322.839C36.4107 322.475 35.652 321.855 35.1148 321.059C27.2467 309.395 20.5412 296.883 15.1645 283.688C13.4671 279.522 17.9004 275.599 22.0288 277.385C44.5934 287.145 72.224 293.692 105.207 293.692C152.127 293.692 185.273 279.712 214.534 266.694C215.651 266.197 216.76 265.702 217.863 265.211C245.752 252.781 269.304 242.285 300.611 242.285C339.148 242.285 372.574 252.738 398.778 266.433ZM300.611 313.501C324.925 313.501 347.205 317.706 366.921 324.286C370.06 325.334 371.216 329.126 369.194 331.746C361.995 341.075 354.013 349.769 345.347 357.731C344.208 358.777 342.642 359.213 341.118 358.951C328.274 356.743 314.745 355.501 300.611 355.501C262.739 355.501 233.866 368.53 206.786 380.75C205.282 381.429 203.783 382.105 202.289 382.776C184.752 390.656 167.299 398.163 147.092 402.776C146.253 402.967 145.377 402.933 144.555 402.677C123.568 396.125 104.023 386.308 86.5154 373.819C82.4329 370.906 85.0744 364.624 90.079 364.942C94.9907 365.254 100.033 365.417 105.207 365.417C152.159 365.417 185.325 351.287 214.584 338.141C215.698 337.641 216.804 337.143 217.904 336.648C245.803 324.091 269.334 313.501 300.611 313.501ZM214.584 410.141C213.696 410.54 213.996 411.85 214.97 411.809C246.054 410.479 275.355 402.26 301.383 388.641C302.977 387.807 302.41 385.501 300.611 385.501C269.334 385.501 245.803 396.091 217.904 408.648C216.804 409.143 215.698 409.641 214.584 410.141ZM410.459 231.428C410.045 234.793 406.411 236.661 403.341 235.222C374.993 221.928 340.173 212.285 300.611 212.285C262.769 212.285 233.918 225.177 206.83 237.28C205.328 237.951 203.832 238.62 202.339 239.284C173.826 251.969 145.512 263.692 105.207 263.692C57.9535 263.692 24.5674 248.37 3.05973 231.727C2.01973 230.922 1.36027 229.729 1.21875 228.422C0.421601 221.057 0.0125885 213.576 0.0125885 206C0.0125885 205.011 0.0195626 204.023 0.0334643 203.037C0.0868593 199.25 4.25319 197.041 7.57382 198.863C32.4362 212.504 64.8034 222.417 105.207 222.417C152.159 222.417 185.325 208.287 214.584 195.141C215.698 194.641 216.804 194.143 217.904 193.648C245.803 181.091 269.334 170.501 300.611 170.501C342.43 170.501 378.232 182.94 405.319 198.51C406.8 199.361 408.252 200.22 409.674 201.084C411.12 201.964 412.005 203.531 412.011 205.224C412.012 205.482 412.013 205.741 412.013 206C412.013 214.61 411.484 223.096 410.459 231.428ZM206.013 0C108.647 0 27.059 67.5486 5.5538 158.339C5.1034 160.241 5.82891 162.231 7.41523 163.372C28.9789 178.884 61.0375 192.417 105.207 192.417C145.48 192.417 173.774 180.588 202.289 167.776C203.783 167.105 205.282 166.429 206.786 165.75C233.866 153.53 262.739 140.501 300.611 140.501C338.143 140.501 371.407 149.26 398.924 161.614C402.715 163.315 406.915 160.063 405.911 156.032C383.579 66.4063 302.551 0 206.013 0Z" clip-rule="evenodd"/></mask><g mask="url(#mask0_1_4)"><path fill="url(#paint2_linear_1_4)" fill-rule="evenodd" d="M114.107 33.6189C142.51 18.8491 174.787 10.502 209.014 10.502C309.805 10.502 393.691 82.8889 411.518 178.512L303.056 155.714L267.004 164.062C266.116 91.0951 206.69 32.2185 133.514 32.2185C126.922 32.2185 120.442 32.6962 114.107 33.6189Z" clip-rule="evenodd"/></g><path fill="#fff" fill-rule="evenodd" d="M273.192 44.3933C273.108 54.4226 264.951 62.5267 254.902 62.5267C264.951 62.5267 273.108 70.6309 273.192 80.6601V80.8172C273.192 80.7802 273.192 80.7432 273.192 80.7062C273.193 80.7432 273.193 80.7802 273.193 80.8172V80.6601C273.277 70.6309 281.433 62.5267 291.482 62.5267C281.433 62.5267 273.277 54.4226 273.193 44.3933V44.2363C273.193 44.2733 273.193 44.3103 273.192 44.3472C273.192 44.3103 273.192 44.2733 273.192 44.2363V44.3933Z" clip-rule="evenodd"/><path fill="#fff" fill-rule="evenodd" d="M313.04 60.0996C312.941 74.0491 301.602 85.3265 287.629 85.3265C301.602 85.3265 312.941 96.6039 313.04 110.553V110.738C313.04 110.695 313.04 110.651 313.04 110.608C313.041 110.651 313.041 110.695 313.041 110.738V110.553C313.14 96.6039 324.479 85.3265 338.452 85.3265C324.479 85.3265 313.14 74.0491 313.041 60.0996V59.9146C313.041 59.9581 313.041 60.0017 313.04 60.0453C313.04 60.0017 313.04 59.9581 313.04 59.9146V60.0996Z" clip-rule="evenodd"/><defs><linearGradient id="paint0_linear_1_4" x1="116.554" x2="237.273" y1="38.5" y2="412.028" gradientUnits="userSpaceOnUse"><stop stop-color="#FFE573"/><stop offset=".314" stop-color="#FF5C09"/><stop offset=".455" stop-color="#FF044B"/><stop offset=".75" stop-color="#C835AA"/><stop offset="1" stop-color="#006BE8"/></linearGradient><linearGradient id="paint1_linear_1_4" x1="116.561" x2="237.173" y1="38.482" y2="411.874" gradientUnits="userSpaceOnUse"><stop stop-color="#FFE573"/><stop offset=".314" stop-color="#FF5C09"/><stop offset=".455" stop-color="#FF044B"/><stop offset=".75" stop-color="#C835AA"/><stop offset="1" stop-color="#006BE8"/></linearGradient><linearGradient id="paint2_linear_1_4" x1="147.351" x2="446.664" y1="18.642" y2="153.318" gradientUnits="userSpaceOnUse"><stop stop-color="#FFC75C"/><stop offset=".28" stop-color="#FCA13E"/><stop offset=".54" stop-color="#FF0F4E"/><stop offset=".675" stop-color="#FF1646" stop-opacity=".827"/><stop offset=".846" stop-color="#FF371D" stop-opacity="0"/></linearGradient></defs></svg>