<svg width="54" height="23" viewBox="0 0 54 23" fill="none" xmlns="http://www.w3.org/2000/svg">
<path d="M0.0880001 0.0319996H2.176V15.104H11.488V17H0.0880001V0.0319996ZM19.1916 4.208C20.1996 4.208 21.0716 4.368 21.8076 4.688C22.5436 5.008 23.1596 5.456 23.6556 6.032C24.1676 6.608 24.5436 7.296 24.7836 8.096C25.0396 8.88 25.1676 9.744 25.1676 10.688C25.1676 11.632 25.0396 12.504 24.7836 13.304C24.5436 14.088 24.1676 14.768 23.6556 15.344C23.1596 15.904 22.5356 16.344 21.7836 16.664C21.0316 16.984 20.1516 17.144 19.1436 17.144C18.1356 17.144 17.2556 16.984 16.5036 16.664C15.7676 16.344 15.1436 15.904 14.6316 15.344C14.1356 14.768 13.7596 14.088 13.5036 13.304C13.2636 12.504 13.1436 11.632 13.1436 10.688C13.1436 9.744 13.2636 8.88 13.5036 8.096C13.7596 7.296 14.1356 6.608 14.6316 6.032C15.1436 5.456 15.7836 5.008 16.5516 4.688C17.3196 4.368 18.1996 4.208 19.1916 4.208ZM19.1436 15.344C19.8316 15.344 20.4236 15.224 20.9196 14.984C21.4316 14.744 21.8476 14.416 22.1676 14C22.5036 13.568 22.7436 13.072 22.8876 12.512C23.0476 11.952 23.1276 11.344 23.1276 10.688C23.1276 10.048 23.0476 9.448 22.8876 8.888C22.7436 8.312 22.5036 7.816 22.1676 7.4C21.8476 6.968 21.4316 6.632 20.9196 6.392C20.4236 6.152 19.8316 6.032 19.1436 6.032C18.4556 6.032 17.8636 6.152 17.3676 6.392C16.8716 6.632 16.4556 6.968 16.1196 7.4C15.7996 7.816 15.5596 8.312 15.3996 8.888C15.2556 9.448 15.1836 10.048 15.1836 10.688C15.1836 11.344 15.2556 11.952 15.3996 12.512C15.5596 13.072 15.7996 13.568 16.1196 14C16.4556 14.416 16.8716 14.744 17.3676 14.984C17.8636 15.224 18.4556 15.344 19.1436 15.344ZM39.1771 16.904C39.1771 18.696 38.6971 20.104 37.7371 21.128C36.7771 22.152 35.3291 22.664 33.3931 22.664C32.7531 22.664 32.1371 22.592 31.5451 22.448C30.9691 22.304 30.4411 22.072 29.9611 21.752C29.4971 21.448 29.0971 21.056 28.7611 20.576C28.4411 20.112 28.2171 19.552 28.0891 18.896H30.2011C30.2971 19.264 30.4571 19.568 30.6811 19.808C30.9211 20.064 31.1931 20.264 31.4971 20.408C31.8011 20.568 32.1291 20.68 32.4811 20.744C32.8331 20.808 33.1771 20.84 33.5131 20.84C34.1531 20.84 34.7051 20.736 35.1691 20.528C35.6331 20.336 36.0091 20.064 36.2971 19.712C36.5851 19.36 36.7931 18.936 36.9211 18.44C37.0651 17.96 37.1371 17.432 37.1371 16.856V15.104C36.7211 15.84 36.1291 16.368 35.3611 16.688C34.5931 16.992 33.7931 17.144 32.9611 17.144C32.0011 17.128 31.1691 16.96 30.4651 16.64C29.7611 16.304 29.1851 15.848 28.7371 15.272C28.2891 14.696 27.9531 14.024 27.7291 13.256C27.5211 12.472 27.4171 11.624 27.4171 10.712C27.4171 9.8 27.5291 8.952 27.7531 8.168C27.9771 7.368 28.3211 6.68 28.7851 6.104C29.2491 5.512 29.8331 5.048 30.5371 4.712C31.2411 4.376 32.0811 4.208 33.0571 4.208C33.7931 4.208 34.5371 4.344 35.2891 4.616C36.0411 4.888 36.6571 5.328 37.1371 5.936L37.2331 4.352H39.1771V16.904ZM33.2251 6.032C32.5371 6.032 31.9531 6.16 31.4731 6.416C30.9931 6.656 30.6011 6.984 30.2971 7.4C30.0091 7.816 29.7931 8.312 29.6491 8.888C29.5211 9.448 29.4571 10.048 29.4571 10.688C29.4571 11.392 29.5211 12.016 29.6491 12.56C29.7771 13.088 29.9931 13.56 30.2971 13.976C30.6011 14.392 30.9931 14.728 31.4731 14.984C31.9531 15.224 32.5451 15.344 33.2491 15.344C34.0651 15.344 34.7371 15.152 35.2651 14.768C35.7931 14.384 36.2171 13.904 36.5371 13.328C36.7611 12.928 36.9211 12.496 37.0171 12.032C37.1131 11.552 37.1611 11.08 37.1611 10.616C37.1611 10.04 37.1051 9.512 36.9931 9.032C36.8971 8.552 36.7131 8.104 36.4411 7.688C36.1211 7.224 35.6971 6.832 35.1691 6.512C34.6411 6.192 33.9931 6.032 33.2251 6.032ZM47.9494 4.208C48.9574 4.208 49.8294 4.368 50.5654 4.688C51.3014 5.008 51.9174 5.456 52.4134 6.032C52.9254 6.608 53.3014 7.296 53.5414 8.096C53.7974 8.88 53.9254 9.744 53.9254 10.688C53.9254 11.632 53.7974 12.504 53.5414 13.304C53.3014 14.088 52.9254 14.768 52.4134 15.344C51.9174 15.904 51.2934 16.344 50.5414 16.664C49.7894 16.984 48.9094 17.144 47.9014 17.144C46.8934 17.144 46.0134 16.984 45.2614 16.664C44.5254 16.344 43.9014 15.904 43.3894 15.344C42.8934 14.768 42.5174 14.088 42.2614 13.304C42.0214 12.504 41.9014 11.632 41.9014 10.688C41.9014 9.744 42.0214 8.88 42.2614 8.096C42.5174 7.296 42.8934 6.608 43.3894 6.032C43.9014 5.456 44.5414 5.008 45.3094 4.688C46.0774 4.368 46.9574 4.208 47.9494 4.208ZM47.9014 15.344C48.5894 15.344 49.1814 15.224 49.6774 14.984C50.1894 14.744 50.6054 14.416 50.9254 14C51.2614 13.568 51.5014 13.072 51.6454 12.512C51.8054 11.952 51.8854 11.344 51.8854 10.688C51.8854 10.048 51.8054 9.448 51.6454 8.888C51.5014 8.312 51.2614 7.816 50.9254 7.4C50.6054 6.968 50.1894 6.632 49.6774 6.392C49.1814 6.152 48.5894 6.032 47.9014 6.032C47.2134 6.032 46.6214 6.152 46.1254 6.392C45.6294 6.632 45.2134 6.968 44.8774 7.4C44.5574 7.816 44.3174 8.312 44.1574 8.888C44.0134 9.448 43.9414 10.048 43.9414 10.688C43.9414 11.344 44.0134 11.952 44.1574 12.512C44.3174 13.072 44.5574 13.568 44.8774 14C45.2134 14.416 45.6294 14.744 46.1254 14.984C46.6214 15.224 47.2134 15.344 47.9014 15.344Z" fill="white"/>
</svg>
