<svg width="69" height="69" viewBox="0 0 69 69" fill="none" xmlns="http://www.w3.org/2000/svg">
<path d="M45.2813 34.5C42.5105 34.5 39.8314 33.2629 37.7344 31.0177C35.6954 28.8277 34.4502 25.9073 34.2305 22.797C33.996 19.479 35.0081 16.4279 37.0795 14.2043C39.1508 11.9807 42.0469 10.7812 45.2813 10.7812C48.4928 10.7812 51.3969 12.0022 53.4616 14.2205C55.5464 16.4603 56.5612 19.506 56.3267 22.7956C56.1016 25.91 54.8577 28.8291 52.8228 31.0163C50.7312 33.2628 48.0534 34.5 45.2813 34.5Z" fill="#E95848"/>
<path d="M63.0475 58.2187H27.5165C26.9452 58.2218 26.3809 58.0938 25.8669 57.8445C25.3529 57.5952 24.9029 57.2313 24.5517 56.7808C24.179 56.2924 23.9217 55.7261 23.7989 55.1242C23.6762 54.5223 23.6912 53.9005 23.8428 53.3052C24.9775 48.7488 27.7887 44.9699 31.9718 42.3784C35.6846 40.0793 40.4109 38.8125 45.2813 38.8125C50.2474 38.8125 54.8497 40.0254 58.584 42.3231C62.7766 44.9012 65.5918 48.7016 66.7212 53.3133C66.8709 53.909 66.8843 54.5308 66.7601 55.1324C66.636 55.734 66.3776 56.2998 66.0042 56.7875C65.6533 57.2359 65.2044 57.598 64.6919 57.8461C64.1793 58.0942 63.6168 58.2217 63.0475 58.2187Z" fill="#E95848"/>
<path d="M19.8105 35.0391C15.0681 35.0391 10.8985 30.6295 10.5117 25.2106C10.3204 22.4344 11.1855 19.8671 12.9375 17.9845C14.6706 16.1207 17.1152 15.0938 19.8105 15.0938C22.5059 15.0938 24.9316 16.1261 26.6742 18.0006C28.4396 19.8981 29.3021 22.46 29.0999 25.2133C28.7132 30.6309 24.5449 35.0391 19.8105 35.0391Z" fill="#E95848"/>
<path d="M28.6592 39.2774C26.2887 38.1184 23.212 37.5389 19.8119 37.5389C15.8417 37.5389 11.986 38.5739 8.9538 40.4526C5.51593 42.5859 3.20335 45.6923 2.26942 49.4428C2.13275 49.9822 2.11982 50.5456 2.23161 51.0908C2.34339 51.636 2.577 52.1488 2.91495 52.5909C3.23562 53.0026 3.64644 53.3352 4.1158 53.5632C4.58517 53.7913 5.10057 53.9086 5.62239 53.9062H20.5814C20.8339 53.9062 21.0783 53.8175 21.2721 53.6557C21.466 53.4939 21.5968 53.2692 21.642 53.0208C21.6568 52.9359 21.6757 52.851 21.6972 52.7675C22.84 48.1773 25.5178 44.2988 29.4746 41.4714C29.6201 41.3665 29.7371 41.2269 29.8151 41.0654C29.8931 40.9038 29.9295 40.7253 29.9211 40.5461C29.9126 40.3669 29.8596 40.1927 29.7668 40.0391C29.674 39.8856 29.5444 39.7577 29.3897 39.6669C29.1781 39.5429 28.9355 39.4122 28.6592 39.2774Z" fill="#E95848"/>
</svg>
