<svg width="52" height="54" viewBox="0 0 52 54" fill="none" xmlns="http://www.w3.org/2000/svg">
<g clip-path="url(#clip0_9_9889)">
<path d="M35.2172 31.1954L28.1616 38.5215L37.3744 48.0876C39.3227 50.1109 42.4793 50.1109 44.4276 48.0876C46.3766 46.0636 46.3775 42.7865 44.4291 40.7606L35.2172 31.1954Z" fill="white"/>
<path d="M13.643 23.4452L19.1376 29.1511L26.1931 21.8242L20.6994 16.119L27.3433 9.21869C27.8889 8.65218 27.8889 7.73231 27.3433 7.16478L26.1141 5.8892C25.4389 5.18801 24.48 4.86461 23.5369 5.02203L12.9164 6.78992C12.2968 6.89307 11.725 7.19642 11.2814 7.65619L10.8116 8.14501L10.4277 7.74537C9.88217 7.17886 8.99637 7.17886 8.45073 7.74537L5.57885 10.7279C5.03245 11.2944 5.03245 12.2143 5.57885 12.7809L5.96271 13.1805L0.409149 18.9467C-0.136383 19.5132 -0.136383 20.4331 0.409149 20.9997L7.21566 28.068C7.7612 28.6345 8.64699 28.6345 9.19264 28.068L13.643 23.4452Z" fill="white"/>
<path d="M50.6491 12.8097C50.4561 12.6095 50.2037 12.5089 49.9519 12.5089C49.7002 12.5089 49.4476 12.6095 49.2548 12.8097L45.3388 16.8736C44.9953 17.2322 44.5439 17.4104 44.0936 17.4104C43.6431 17.4104 43.1919 17.2321 42.8482 16.8736L39.9831 13.8974C39.6504 13.5564 39.467 13.0903 39.467 12.605C39.467 12.1197 39.6505 11.6548 39.9823 11.3111L43.8983 7.24538C44.2831 6.84575 44.2831 6.19692 43.8983 5.79819C43.0051 4.87156 41.8237 4.39502 40.6341 4.39502C39.7086 4.39502 38.7784 4.68351 37.9752 5.27277L35.8475 6.83347C33.825 8.31546 32.5697 10.6787 32.4368 13.2459L32.185 18.1335L9.82981 41.3499C8.01116 43.2395 8.01116 46.2988 9.82981 48.1874C10.7399 49.1318 11.9313 49.6048 13.1227 49.6048C14.3141 49.6048 15.5046 49.1326 16.4147 48.1883L38.7723 24.9719L43.4771 24.7105C45.9482 24.5731 48.2232 23.2696 49.6511 21.1693L51.1549 18.9591C52.4508 17.0546 52.2361 14.4578 50.6491 12.8097ZM13.3535 46.5568C12.2631 46.5568 11.3789 45.6387 11.3789 44.5063C11.3789 43.374 12.263 42.4559 13.3535 42.4559C14.4438 42.4559 15.3279 43.374 15.3279 44.5063C15.3279 45.6387 14.4438 46.5568 13.3535 46.5568Z" fill="white"/>
</g>
<defs>
<clipPath id="clip0_9_9889">
<rect width="52" height="54" fill="white"/>
</clipPath>
</defs>
</svg>
