<svg width="116" height="78" viewBox="0 0 116 78" fill="none" xmlns="http://www.w3.org/2000/svg">
<rect width="116" height="78" rx="39" fill="#111111"/>
<mask id="path-2-inside-1_129_883" fill="white">
<path fill-rule="evenodd" clip-rule="evenodd" d="M60.2132 35.2026L58 24L55.7923 35.1747L50.6415 32.1549L53.8095 36.9494L42 39L53.9015 41.0666L50.61 46.0009L55.8217 42.9743L58 54L60.177 42.9805L65.3792 46.0304L62.0992 41.0664L74 39L62.2277 36.9559L65.4106 32.1843L60.2132 35.2026Z"/>
</mask>
<path d="M58 24L67.8104 22.0618L48.1896 22.0618L58 24ZM60.2132 35.2026L50.4028 37.1408L53.1185 50.8868L65.2352 43.8502L60.2132 35.2026ZM55.7923 35.1747L50.7347 43.8014L62.8751 50.919L65.6027 37.1128L55.7923 35.1747ZM50.6415 32.1549L55.6991 23.5281L42.2983 37.6676L50.6415 32.1549ZM53.8095 36.9494L55.5203 46.802L70.5778 44.1874L62.1527 31.4366L53.8095 36.9494ZM42 39L40.2892 29.1474L40.2892 48.8526L42 39ZM53.9015 41.0666L62.2205 46.6158L70.7419 33.8411L55.6123 31.214L53.9015 41.0666ZM50.61 46.0009L42.291 40.4517L55.632 54.6484L50.61 46.0009ZM55.8217 42.9743L65.6321 41.0361L62.9164 27.2901L50.7998 34.3267L55.8217 42.9743ZM58 54L48.1896 55.9382H67.8104L58 54ZM60.177 42.9805L65.2347 34.3538L53.0942 27.2361L50.3667 41.0423L60.177 42.9805ZM65.3792 46.0304L60.3215 54.6571L73.7224 40.5176L65.3792 46.0304ZM62.0992 41.0664L60.3884 31.2139L45.3309 33.8284L53.756 46.5792L62.0992 41.0664ZM74 39L75.7108 48.8526V29.1474L74 39ZM62.2277 36.9559L53.9087 31.4067L45.3873 44.1814L60.5169 46.8085L62.2277 36.9559ZM65.4106 32.1843L73.7296 37.7335L60.3886 23.5368L65.4106 32.1843ZM48.1896 25.9382L50.4028 37.1408L70.0236 33.2645L67.8104 22.0618L48.1896 25.9382ZM65.6027 37.1128L67.8104 25.9382L48.1896 22.0618L45.9819 33.2365L65.6027 37.1128ZM45.5838 40.7816L50.7347 43.8014L60.85 26.548L55.6991 23.5281L45.5838 40.7816ZM62.1527 31.4366L58.9847 26.6421L42.2983 37.6676L45.4663 42.4622L62.1527 31.4366ZM43.7108 48.8526L55.5203 46.802L52.0987 27.0968L40.2892 29.1474L43.7108 48.8526ZM55.6123 31.214L43.7108 29.1474L40.2892 48.8526L52.1907 50.9191L55.6123 31.214ZM58.9291 51.5501L62.2205 46.6158L45.5825 35.5173L42.291 40.4517L58.9291 51.5501ZM50.7998 34.3267L45.5881 37.3534L55.632 54.6484L60.8437 51.6218L50.7998 34.3267ZM67.8104 52.0618L65.6321 41.0361L46.0114 44.9124L48.1896 55.9382L67.8104 52.0618ZM50.3667 41.0423L48.1896 52.0618L67.8104 55.9382L69.9874 44.9186L50.3667 41.0423ZM70.4368 37.4037L65.2347 34.3538L55.1194 51.6072L60.3215 54.6571L70.4368 37.4037ZM53.756 46.5792L57.036 51.5432L73.7224 40.5176L70.4424 35.5536L53.756 46.5792ZM72.2892 29.1474L60.3884 31.2139L63.81 50.919L75.7108 48.8526L72.2892 29.1474ZM60.5169 46.8085L72.2892 48.8526L75.7108 29.1474L63.9385 27.1033L60.5169 46.8085ZM57.0916 26.6351L53.9087 31.4067L70.5467 42.5051L73.7296 37.7335L57.0916 26.6351ZM65.2352 43.8502L70.4326 40.8319L60.3886 23.5368L55.1912 26.5551L65.2352 43.8502Z" fill="white" mask="url(#path-2-inside-1_129_883)"/>
</svg>
