<svg width="500" height="43" viewBox="0 0 500 43" fill="none" xmlns="http://www.w3.org/2000/svg">
<path fill-rule="evenodd" clip-rule="evenodd" d="M366.567 18.8254C388.057 15.5792 412.864 12.3785 436.706 11.7337C457.085 11.1835 476.753 12.4868 492.818 17.4407C495.082 18.1382 497.93 17.6972 499.169 16.4538C500.409 15.2115 499.577 13.6349 497.312 12.9363C479.788 7.53367 458.376 5.97336 436.147 6.57448C411.875 7.23005 386.621 10.4496 364.7 13.7416C362.185 10.8795 356.948 8.1858 347.7 6.15127C333.495 3.02579 314.064 2.89305 293.579 4.40515C263.869 6.59695 231.882 12.1637 211.312 16.138C210.468 16.3001 209.212 16.5587 207.674 16.9007C207.211 16.3263 206.692 15.7598 206.116 15.203C201.123 10.3512 192.248 6.38588 183.182 4.91806C125.683 -4.38915 58.3932 5.57173 3.60593 13.6779C1.13176 14.0458 -0.321939 15.4629 0.358612 16.8398C1.0579 18.2169 3.63393 19.036 6.12681 18.6683C59.3772 10.7883 124.757 0.830444 180.649 9.87461C187.528 10.9886 194.202 14.0347 197.989 17.7169C198.416 18.1277 198.787 18.5472 199.139 18.9729C191.577 20.9699 182.68 23.7683 177.88 26.8051C172.948 29.9182 171.702 33.2763 175.942 36.4955C179.587 39.2476 185.144 39.5276 190.94 38.1681C197.186 36.7122 203.638 33.2375 205.73 31.5986C209.65 28.5376 210.915 25.191 210.232 21.911C212.07 21.4994 213.563 21.1942 214.484 21.0163C234.603 17.13 265.869 11.6695 294.92 9.52566C313.612 8.14562 331.356 8.09524 344.319 10.9464C349.847 12.1632 353.494 13.5588 355.467 15.1588C351.541 15.7713 347.757 16.3746 344.141 16.9504C336.989 18.0894 322.104 19.948 311.451 23.3995C302.979 26.1438 297.218 29.9274 297.509 34.7361C297.658 37.2066 300.232 38.877 304.344 39.8365C310.488 41.2695 321.14 40.6953 325.109 40.2651C337.146 38.9632 353.245 33.2792 361.243 26.7856C364.434 24.1945 366.343 21.4714 366.567 18.8254ZM356.675 20.3527C353.273 20.887 349.985 21.412 346.826 21.9154C340.151 22.979 326.202 24.6392 316.255 27.8624C310.987 29.5685 306.68 31.6301 306.862 34.6206C306.877 34.8532 307.294 34.9229 307.662 35.0212C308.231 35.1718 308.884 35.2778 309.579 35.3624C314.286 35.9346 320.619 35.4765 323.212 35.1954C333.311 34.1029 346.775 29.2977 353.485 23.8488C354.903 22.6979 356.034 21.5228 356.675 20.3527ZM200.965 24.2082C196.555 25.4187 191.937 26.8888 188.292 28.5006C186.356 29.3567 184.72 30.2402 183.682 31.163C182.814 31.9261 182.471 32.7125 183.493 33.4839C183.903 33.7963 184.52 33.8079 185.157 33.7556C185.831 33.6995 186.525 33.5734 187.219 33.409C191.796 32.3394 196.536 29.7887 198.062 28.5861C199.853 27.1915 200.746 25.7075 200.965 24.2082Z" fill="white"/>
</svg>
