<svg xmlns="http://www.w3.org/2000/svg" width="267" height="37" fill="none" viewBox="0 0 267 37"><path fill="#E95848" fill-rule="evenodd" d="M71.1646 21.7892C59.6936 25.1328 46.4497 28.4604 33.7091 29.2912C22.8195 30.0004 12.301 28.8989 3.69158 24.2124C2.47795 23.5525 0.958157 24.0062 0.301816 25.2273C-0.355525 26.4475 0.0967055 27.9755 1.31034 28.6364C10.7022 33.7474 22.1541 35.0843 34.0323 34.3097C47.002 33.4648 60.485 30.115 72.1861 26.7231C73.5438 29.4884 76.3553 32.0665 81.3079 33.9687C88.9148 36.8908 99.3012 36.8546 110.243 35.2079C126.112 32.8209 143.183 27.1285 154.159 23.0838C154.609 22.9188 155.279 22.6563 156.1 22.3102C156.35 22.8655 156.63 23.4127 156.94 23.9499C159.631 28.6314 164.394 32.4166 169.247 33.7685C200.022 42.3409 235.941 32.0695 265.186 23.7104C266.507 23.3312 267.277 21.9391 266.907 20.6042C266.527 19.2694 265.146 18.4938 263.816 18.8731C235.391 26.9988 200.493 37.2509 170.577 28.921C166.895 27.895 163.313 24.9859 161.272 21.4331C161.042 21.0368 160.842 20.6314 160.652 20.22C164.684 18.2112 169.427 15.4107 171.978 12.4131C174.599 9.34009 175.25 6.05983 172.968 2.96164C171.007 0.313087 168.036 0.0877592 164.944 1.46082C161.613 2.93146 158.181 6.36959 157.07 7.98307C154.989 10.9968 154.329 14.266 154.709 17.4537C153.728 17.8702 152.932 18.18 152.441 18.361C141.705 22.3163 125.02 27.8991 109.502 30.2338C99.5183 31.7366 90.0344 31.9368 83.0928 29.2711C80.1322 28.1334 78.1762 26.8057 77.1146 25.2646C79.2097 24.6349 81.2298 24.0152 83.1598 23.4238C86.9768 22.2539 94.9239 20.3176 100.602 16.8663C105.117 14.1222 108.179 10.3892 108.001 5.70977C107.91 3.30565 106.526 1.7012 104.324 0.801924C101.033 -0.540962 95.3421 0.10884 93.223 0.561498C86.7957 1.93154 78.2173 7.60287 73.9731 13.9934C72.2792 16.5434 71.2716 19.211 71.1646 21.7892ZM76.4443 20.2179C78.2603 19.6687 80.0152 19.1295 81.7011 18.6125C85.2639 17.5201 92.7117 15.7849 98.0135 12.562C100.821 10.8559 103.113 8.81197 103.002 5.90188C102.993 5.67555 102.77 5.61119 102.573 5.51865C102.268 5.37681 101.919 5.27921 101.546 5.20277C99.028 4.68573 95.6453 5.18564 94.2606 5.48138C88.8678 6.63113 81.694 11.4243 78.1332 16.7868C77.3808 17.9194 76.7815 19.0732 76.4443 20.2179ZM159.652 15.1381C162.003 13.922 164.464 12.4513 166.405 10.8509C167.436 10.0009 168.306 9.12683 168.856 8.2195C169.317 7.4691 169.497 6.70054 168.946 5.95818C168.726 5.65741 168.396 5.65141 168.056 5.70775C167.696 5.7681 167.325 5.89682 166.955 6.0628C164.514 7.14314 161.993 9.66697 161.182 10.8509C160.232 12.224 159.762 13.6765 159.652 15.1381Z" clip-rule="evenodd"/></svg>