<svg width="28" height="27" viewBox="0 0 28 27" fill="none" xmlns="http://www.w3.org/2000/svg">
<path d="M24.5799 4.33508H3.42014C1.53436 4.33508 0 5.81464 0 7.63307V19.367C0 21.1854 1.53436 22.665 3.42014 22.665H24.5799C26.4656 22.665 28 21.1854 28 19.367V7.63343C28.0004 5.81464 26.466 4.33508 24.5799 4.33508ZM22.9086 6.48665L14 12.0212L5.09135 6.48665H22.9086ZM24.5799 20.5138H3.42014C2.76452 20.5138 2.23125 19.9992 2.23125 19.3674V7.69439L13.3117 14.5651C13.3265 14.574 13.3425 14.5801 13.3578 14.5884C13.3738 14.597 13.3901 14.6052 13.4065 14.6131C13.4924 14.6558 13.5809 14.6902 13.6713 14.7128C13.6806 14.7153 13.6899 14.7164 13.6992 14.7185C13.7984 14.7411 13.8988 14.7551 13.9993 14.7551H14C14.0007 14.7551 14.0015 14.7551 14.0015 14.7551C14.1019 14.7551 14.2023 14.7415 14.3016 14.7185C14.3109 14.7164 14.3202 14.7153 14.3295 14.7128C14.4198 14.6902 14.508 14.6558 14.5943 14.6131C14.6106 14.6052 14.627 14.597 14.643 14.5884C14.6582 14.5801 14.6742 14.574 14.6891 14.5651L25.7695 7.69439V19.367C25.7691 19.9992 25.2355 20.5138 24.5799 20.5138Z" fill="white"/>
</svg>
