<svg width="35" height="45" viewBox="0 0 35 45" fill="none" xmlns="http://www.w3.org/2000/svg">
<path d="M17.6072 0C8.2312 0 0.603394 7.00615 0.603394 15.617C0.603394 23.9057 16.0313 43.271 16.6882 44.091L17.3012 44.8573C17.3729 44.9473 17.4871 45 17.6072 45C17.7292 45 17.8426 44.9473 17.9151 44.8573L18.5278 44.091C19.185 43.271 34.6125 23.9057 34.6125 15.617C34.6125 7.00615 26.9835 0 17.6072 0ZM17.6072 10.023C20.9667 10.023 23.6984 12.5319 23.6984 15.617C23.6984 18.7005 20.9665 21.211 17.6072 21.211C14.2497 21.211 11.516 18.7005 11.516 15.617C11.516 12.5319 14.2496 10.023 17.6072 10.023Z" fill="white"/>
</svg>
