<svg width="40" height="40" viewBox="0 0 40 40" fill="none" xmlns="http://www.w3.org/2000/svg">
<g clip-path="url(#clip0_171_2193)">
<path d="M15 0H8.33333C3.73833 0 0 3.73833 0 8.33333V11.6667C0 13.505 1.495 15 3.33333 15H15C16.8383 15 18.3333 13.505 18.3333 11.6667V3.33333C18.3333 1.495 16.8383 0 15 0ZM3.33333 11.6667V8.33333C3.33333 5.57667 5.57667 3.33333 8.33333 3.33333H15L15.0033 11.6667H3.33333ZM36.6667 25H25C23.1617 25 21.6667 26.495 21.6667 28.3333V36.6667C21.6667 38.505 23.1617 40 25 40H31.6667C36.2617 40 40 36.2617 40 31.6667V28.3333C40 26.495 38.505 25 36.6667 25ZM36.6667 31.6667C36.6667 34.4233 34.4233 36.6667 31.6667 36.6667H25V28.3333H36.6667V31.6667ZM31.6667 0H25C23.1617 0 21.6667 1.495 21.6667 3.33333V18.3333C21.6667 20.1717 23.1617 21.6667 25 21.6667H36.6667C38.505 21.6667 40 20.1717 40 18.3333V8.33333C40 3.73833 36.2617 0 31.6667 0ZM25 18.3333V3.33333H31.6667C34.4233 3.33333 36.6667 5.57667 36.6667 8.33333L36.67 18.3333H25ZM15 18.3333H3.33333C1.495 18.3333 0 19.8283 0 21.6667V31.6667C0 36.2617 3.73833 40 8.33333 40H15C16.8383 40 18.3333 38.505 18.3333 36.6667V21.6667C18.3333 19.8283 16.8383 18.3333 15 18.3333ZM8.33333 36.6667C5.57667 36.6667 3.33333 34.4233 3.33333 31.6667V21.6667H15L15.0033 36.6667H8.33333Z" fill="url(#paint0_linear_171_2193)"/>
</g>
<defs>
<linearGradient id="paint0_linear_171_2193" x1="-2.20623" y1="20" x2="41.726" y2="30.6716" gradientUnits="userSpaceOnUse">
<stop stop-color="#FF0000"/>
<stop offset="0.494792" stop-color="#F71919"/>
<stop offset="1" stop-color="#E95848"/>
</linearGradient>
<clipPath id="clip0_171_2193">
<rect width="40" height="40" fill="white"/>
</clipPath>
</defs>
</svg>
