<svg width="40" height="36" viewBox="0 0 40 36" fill="none" xmlns="http://www.w3.org/2000/svg">
<path d="M20.0505 32.7339C23.0426 32.7339 25.4681 30.3044 25.4681 27.3074C25.4681 24.3104 23.0426 21.8809 20.0505 21.8809C17.0584 21.8809 14.6328 24.3104 14.6328 27.3074C14.6328 30.3044 17.0584 32.7339 20.0505 32.7339Z" stroke="url(#paint0_linear_171_2178)" stroke-width="4" stroke-linecap="round" stroke-linejoin="round"/>
<path d="M5.96475 23.8704C4.55475 22.5376 3.46972 20.8977 2.7936 19.0776C2.11748 17.2575 1.86837 15.3061 2.06555 13.3742C2.26273 11.4423 2.90091 9.58171 3.93073 7.93634C4.96055 6.29097 6.35441 4.90492 8.00452 3.88537C9.65462 2.86583 11.5167 2.24012 13.4469 2.05664C15.377 1.87316 17.3234 2.13683 19.1355 2.82725C20.9476 3.51768 22.5769 4.61635 23.8974 6.0383C25.2178 7.46025 26.194 9.16737 26.7505 11.0276H29.9831C31.7056 11.0509 33.3763 11.6219 34.7538 12.6581C36.1313 13.6944 37.1444 15.1424 37.6468 16.7929C38.1492 18.4435 38.1149 20.2113 37.5489 21.841C36.9829 23.4708 35.9144 24.8783 34.4978 25.8602M26.7325 29.8396L25.1072 29.297M14.9942 25.3175L13.3689 24.7749M17.5224 34L18.0642 32.372M22.0371 22.2425L22.5789 20.6145M22.9401 34L22.2177 32.1912M17.8836 22.4234L17.1613 20.6145M13.3689 30.2014L15.1748 29.4779M24.9266 25.1366L26.7325 24.4131" stroke="url(#paint1_linear_171_2178)" stroke-width="4" stroke-linecap="round" stroke-linejoin="round"/>
<defs>
<linearGradient id="paint0_linear_171_2178" x1="14.0352" y1="27.3074" x2="25.9378" y2="30.194" gradientUnits="userSpaceOnUse">
<stop stop-color="#FF0000"/>
<stop offset="0.494792" stop-color="#F71919"/>
<stop offset="1" stop-color="#E95848"/>
</linearGradient>
<linearGradient id="paint1_linear_171_2178" x1="0.014389" y1="18" x2="38.9767" y2="28.6474" gradientUnits="userSpaceOnUse">
<stop stop-color="#FF0000"/>
<stop offset="0.494792" stop-color="#F71919"/>
<stop offset="1" stop-color="#E95848"/>
</linearGradient>
</defs>
</svg>
