<svg width="89" height="40" viewBox="0 0 89 40" fill="none" xmlns="http://www.w3.org/2000/svg">
<path fill-rule="evenodd" clip-rule="evenodd" d="M79.8647 24.0886C78.6855 24.0886 77.7296 25.0592 77.7296 26.2566C77.7296 27.4537 78.6855 28.4246 79.8647 28.4246C81.0439 28.4246 82 27.4538 82 26.2566C82 25.0591 81.0439 24.0886 79.8647 24.0886ZM72.84 22.4125C72.84 20.7732 71.46 19.4446 69.7577 19.4446C68.0554 19.4446 66.6753 20.7733 66.6753 22.4125C66.6753 24.0518 68.0552 25.3808 69.7577 25.3808C71.4602 25.3808 72.84 24.0518 72.84 22.4125ZM72.8514 16.644H76.2531V28.1806H72.8514V27.4433C71.8904 28.1087 70.7303 28.5 69.4791 28.5C66.1681 28.5 63.4838 25.7745 63.4838 22.4124C63.4838 19.0504 66.1681 16.3251 69.4791 16.3251C70.7303 16.3251 71.8904 16.7163 72.8514 17.382V16.644ZM45.628 18.1467V16.6442H42.1452V28.1805H45.6358V22.7944C45.6358 20.9772 47.5756 20.0004 48.9216 20.0004C48.9354 20.0004 48.9483 20.0018 48.962 20.0019V16.6451C47.5806 16.6451 46.31 17.2455 45.628 18.1467ZM36.9523 22.4125C36.9523 20.7733 35.5722 19.4447 33.8698 19.4447C32.1676 19.4447 30.7874 20.7733 30.7874 22.4125C30.7874 24.0519 32.1675 25.3808 33.8698 25.3808C35.5723 25.3808 36.9523 24.0519 36.9523 22.4125ZM36.9635 16.6441H40.3654V28.1806H36.9635V27.4433C36.0025 28.1088 34.8424 28.5 33.5914 28.5C30.2802 28.5 27.596 25.7746 27.596 22.4125C27.596 19.0504 30.2802 16.3252 33.5914 16.3252C34.8425 16.3252 36.0025 16.7164 36.9635 17.382V16.6441ZM57.4391 16.3338C56.0802 16.3338 54.7941 16.7621 53.9342 17.944V16.6448H50.5471V28.1807H53.9759V22.1182C53.9759 20.3638 55.1345 19.5048 56.5296 19.5048C58.0247 19.5048 58.8842 20.4117 58.8842 22.0944V28.1807H62.2819V20.8444C62.2819 18.1597 60.1797 16.3338 57.4391 16.3338ZM22.6408 28.1807H26.2014V11.5031H22.6408V28.1807ZM7 28.1853H10.7702V11.5H7V28.1853ZM20.1871 11.5C20.1871 15.1122 18.8007 18.4725 16.3303 20.9702L21.5418 28.1859H16.8851L11.2213 20.344L12.683 19.2325C15.1071 17.3887 16.4975 14.5705 16.4975 11.5L20.1871 11.5Z" fill="white"/>
</svg>
