<svg width="89" height="40" viewBox="0 0 89 40" fill="none" xmlns="http://www.w3.org/2000/svg">
<path fill-rule="evenodd" clip-rule="evenodd" d="M13.2933 9.00233H6.83753C6.39576 9.00233 6.02004 9.32168 5.95115 9.75531L3.34012 26.221C3.28822 26.546 3.54119 26.8388 3.87254 26.8388H6.95457C7.39634 26.8388 7.77206 26.5195 7.84095 26.085L8.54518 21.644C8.61311 21.2091 8.98975 20.8901 9.43061 20.8901H11.4743C15.7269 20.8901 18.1811 18.8432 18.8223 14.7872C19.1111 13.0127 18.8346 11.6184 17.9989 10.6417C17.0815 9.56978 15.4539 9.00233 13.2933 9.00233ZM14.0381 15.0162C13.6851 17.3203 11.9151 17.3203 10.2037 17.3203H9.22953L9.91297 13.0171C9.95355 12.7572 10.1801 12.5656 10.4444 12.5656H10.8909C12.0567 12.5656 13.1565 12.5656 13.7249 13.2265C14.0634 13.621 14.1674 14.2067 14.0381 15.0162ZM32.5911 14.9423H29.4996C29.2361 14.9423 29.0085 15.1339 28.9679 15.3942L28.8312 16.2541L28.615 15.9425C27.9457 14.9762 26.4535 14.6534 24.9639 14.6534C21.5473 14.6534 18.6297 17.2269 18.0614 20.8371C17.7661 22.6377 18.1859 24.3596 19.2129 25.5605C20.1551 26.6646 21.5032 27.1247 23.1069 27.1247C25.8594 27.1247 27.3861 25.3641 27.3861 25.3641L27.2481 26.2188C27.1961 26.5455 27.449 26.8384 27.7784 26.8384H30.5633C31.0062 26.8384 31.3797 26.519 31.4496 26.0845L33.1205 15.5602C33.1734 15.2365 32.9213 14.9423 32.5911 14.9423ZM28.2816 20.9271C27.9833 22.6837 26.5815 23.863 24.7939 23.863C23.8962 23.863 23.1785 23.5766 22.7181 23.0339C22.2611 22.4952 22.0873 21.7279 22.2327 20.8736C22.5114 19.1317 23.9368 17.9143 25.6973 17.9143C26.5749 17.9143 27.2887 18.2041 27.7588 18.7515C28.2297 19.3047 28.4166 20.0763 28.2816 20.9271ZM45.9492 14.9419H49.056C49.491 14.9419 49.7449 15.4272 49.4976 15.7822L39.1651 30.6168C38.9977 30.857 38.7221 31 38.4277 31H35.3248C34.888 31 34.6328 30.5108 34.8858 30.1549L38.1031 25.6379L34.6813 15.6497C34.563 15.3025 34.8207 14.9419 35.192 14.9419H38.2446C38.6413 14.9419 38.9912 15.2009 39.1056 15.5784L40.9216 21.611L45.2065 15.3334C45.3743 15.0883 45.653 14.9419 45.9492 14.9419Z" fill="white"/>
<path fill-rule="evenodd" clip-rule="evenodd" d="M79.6333 26.2195L82.2827 9.45274C82.3234 9.19248 82.5501 9.00087 82.8135 9H85.7962C86.1256 9 86.3785 9.29372 86.3266 9.61872L83.7138 26.0835C83.6457 26.518 83.27 26.8374 82.8275 26.8374H80.1636C79.8343 26.8374 79.5813 26.5445 79.6333 26.2195ZM59.3426 9.00086H52.8857C52.4449 9.00086 52.0692 9.32022 52.0002 9.75384L49.3892 26.2195C49.3372 26.5445 49.5902 26.8374 49.92 26.8374H53.233C53.5409 26.8374 53.8043 26.614 53.8524 26.3099L54.5933 21.6425C54.6614 21.2076 55.038 20.8887 55.4787 20.8887H57.5214C61.7749 20.8887 64.2286 18.8418 64.8703 14.7857C65.16 13.0113 64.8817 11.617 64.0465 10.6402C63.1295 9.56832 61.5032 9.00086 59.3426 9.00086ZM60.0874 15.0147C59.7353 17.3189 57.9652 17.3189 56.2528 17.3189H55.2795L55.9641 13.0156C56.0047 12.7558 56.2292 12.5642 56.4944 12.5642H56.9408C58.1059 12.5642 59.2067 12.5642 59.7746 13.225C60.1136 13.6196 60.2167 14.2053 60.0874 15.0147ZM78.6386 14.9409H75.5493C75.2837 14.9409 75.0583 15.1325 75.0185 15.3927L74.8818 16.2526L74.6647 15.9411C73.9955 14.9748 72.5041 14.6519 71.0145 14.6519C67.598 14.6519 64.6812 17.2254 64.1129 20.8357C63.8184 22.6362 64.2365 24.3581 65.2635 25.5591C66.2075 26.6631 67.5538 27.1233 69.1575 27.1233C71.91 27.1233 73.4363 25.3627 73.4363 25.3627L73.2987 26.2173C73.2467 26.5441 73.4997 26.8369 73.8312 26.8369H76.6148C77.0555 26.8369 77.4312 26.5176 77.5002 26.0831L79.172 15.5587C79.2231 15.235 78.9702 14.9409 78.6386 14.9409ZM74.3297 20.9256C74.033 22.6823 72.6295 23.8615 70.8415 23.8615C69.9455 23.8615 69.2265 23.5752 68.7656 23.0325C68.3087 22.4937 68.137 21.7264 68.2807 20.8722C68.5608 19.1303 69.9844 17.9128 71.7449 17.9128C72.6229 17.9128 73.3363 18.2026 73.8068 18.7501C74.2794 19.3032 74.4664 20.0749 74.3297 20.9256Z" fill="white"/>
</svg>
