<svg width="127" height="40" viewBox="0 0 127 40" fill="none" xmlns="http://www.w3.org/2000/svg">
<path fill-rule="evenodd" clip-rule="evenodd" d="M21.1507 14.0494C20.9481 14.8083 20.5553 15.3652 19.9723 15.7209C19.3887 16.0764 18.5701 16.2546 17.5143 16.2546H14.1598L15.3373 11.8446H18.6919C19.7469 11.8446 20.4713 12.0224 20.8648 12.378C21.2576 12.7339 21.3534 13.291 21.1507 14.0494ZM24.6246 13.9544C25.0512 12.3586 24.8744 11.1335 24.0944 10.28C23.3143 9.4265 21.9474 9 19.9951 9H12.5069L8 25.8792H11.638L13.4551 19.0752H15.8409C16.3759 19.0752 16.797 19.1623 17.105 19.3362C17.4137 19.5104 17.5944 19.8186 17.6502 20.2606L18.2991 25.8792H22.1971L21.5647 20.6402C21.4359 19.4706 20.9025 18.7831 19.9653 18.5777C21.1602 18.2304 22.161 17.6529 22.967 16.8467C23.7723 16.041 24.3253 15.0771 24.6246 13.9544Z" fill="white"/>
<path fill-rule="evenodd" clip-rule="evenodd" d="M33.4665 19.8341C33.1625 20.9718 32.6942 21.8414 32.0618 22.4417C31.4287 23.0425 30.6713 23.3426 29.7899 23.3426C28.8912 23.3426 28.2816 23.0465 27.9602 22.4536C27.6373 21.8611 27.6263 21.0041 27.9265 19.8814C28.2258 18.7595 28.7034 17.8824 29.3609 17.2496C30.0177 16.6181 30.7868 16.3016 31.669 16.3016C32.5504 16.3016 33.1475 16.6063 33.457 17.2146C33.7666 17.8229 33.7704 18.696 33.4665 19.8341ZM35.0612 13.8598L34.6055 15.5668C34.4083 14.9502 34.0273 14.4606 33.4633 14.0972C32.8985 13.7337 32.1985 13.5516 31.3642 13.5516C30.3406 13.5516 29.3562 13.8165 28.412 14.3459C27.4677 14.8757 26.642 15.6224 25.9358 16.5862C25.2295 17.5504 24.7118 18.6487 24.3826 19.8814C24.0535 21.1145 23.9875 22.2009 24.1855 23.1411C24.3835 24.0817 24.8124 24.8047 25.473 25.3104C26.133 25.8166 26.983 26.0689 28.0223 26.0689C28.8566 26.0689 29.6516 25.8951 30.4058 25.5473C31.1599 25.2001 31.8002 24.7176 32.3273 24.1014L31.8521 25.8793H35.3715L38.5806 13.8598H35.0612Z" fill="white"/>
<path fill-rule="evenodd" clip-rule="evenodd" d="M51.2357 13.8598H41.0074L40.2924 16.5389H46.2448L38.3748 23.3661L37.7031 25.8792H48.2623L48.9779 23.2006H42.6006L50.59 16.2779L51.2357 13.8598Z" fill="white"/>
<path fill-rule="evenodd" clip-rule="evenodd" d="M60.2409 19.8104C59.9243 20.9954 59.4553 21.8812 58.8347 22.4658C58.2141 23.0504 57.4631 23.3425 56.5817 23.3425C54.7386 23.3425 54.1322 22.1658 54.7607 19.8104C55.0733 18.6408 55.5447 17.7597 56.1747 17.1672C56.8055 16.5744 57.5692 16.2779 58.4671 16.2779C59.3485 16.2779 59.9432 16.5744 60.2496 17.1672C60.5559 17.7597 60.5536 18.6408 60.2409 19.8104ZM62.3 14.31C61.49 13.8046 60.4554 13.5516 59.1953 13.5516C57.9195 13.5516 56.738 13.8046 55.65 14.31C54.5619 14.8162 53.6357 15.5431 52.8713 16.4912C52.1061 17.4396 51.5547 18.5458 51.2169 19.8104C50.879 21.075 50.8398 22.1808 51.099 23.1293C51.3575 24.0777 51.8948 24.8047 52.7134 25.3104C53.5312 25.8166 54.5776 26.0689 55.8535 26.0689C57.1135 26.0689 58.2832 25.8166 59.3635 25.3104C60.442 24.8047 61.3651 24.0777 62.1303 23.1293C62.8946 22.1808 63.4461 21.075 63.784 19.8104C64.1218 18.5458 64.1611 17.4396 63.9026 16.4912C63.6433 15.5431 63.1091 14.8162 62.3 14.31Z" fill="white"/>
<path fill-rule="evenodd" clip-rule="evenodd" d="M99.1111 19.8341C98.8071 20.9718 98.3389 21.8414 97.7065 22.4417C97.074 23.0425 96.3152 23.3426 95.4338 23.3426C94.5367 23.3426 93.9262 23.0465 93.6049 22.4536C93.282 21.8611 93.271 21.0041 93.5712 19.8814C93.8705 18.7595 94.3481 17.8824 95.0056 17.2496C95.6623 16.6181 96.4315 16.3016 97.3136 16.3016C98.1951 16.3016 98.7922 16.6063 99.1016 17.2146C99.4113 17.8229 99.4151 18.696 99.1111 19.8341ZM100.706 13.8598L100.25 15.5668C100.053 14.9502 99.672 14.4606 99.1079 14.0972C98.5431 13.7337 97.8432 13.5516 97.0088 13.5516C95.9852 13.5516 95.0009 13.8165 94.0566 14.3459C93.1124 14.8757 92.2867 15.6224 91.5805 16.5862C90.8742 17.5504 90.3565 18.6487 90.0273 19.8814C89.6982 21.1145 89.6329 22.2009 89.8301 23.1411C90.0281 24.0817 90.4563 24.8047 91.1177 25.3104C91.7776 25.8166 92.6277 26.0689 93.667 26.0689C94.5012 26.0689 95.2963 25.8951 96.0504 25.5473C96.8046 25.2001 97.4448 24.7176 97.972 24.1014L97.4968 25.8793H101.016L104.225 13.8598H100.706Z" fill="white"/>
<path fill-rule="evenodd" clip-rule="evenodd" d="M74.8482 17.084L75.7454 13.8125C75.4406 13.6544 75.0367 13.5752 74.5332 13.5752C73.7295 13.5752 72.9557 13.7766 72.2102 14.1799C71.57 14.5258 71.0248 15.0114 70.5644 15.6199L71.0311 13.8581L70.0121 13.8598H67.5127L64.2789 25.8792H67.847L69.5243 19.5971C69.7686 18.6806 70.2069 17.9655 70.8409 17.4518C71.4733 16.9382 72.2628 16.6811 73.2079 16.6811C73.7907 16.6811 74.3368 16.8155 74.8482 17.084Z" fill="white"/>
<path fill-rule="evenodd" clip-rule="evenodd" d="M84.78 19.8811C84.4799 21.0038 84.0149 21.8608 83.3848 22.4533C82.7532 23.0462 81.9974 23.3422 81.116 23.3422C80.2338 23.3422 79.6329 23.0422 79.3131 22.4415C78.9926 21.8411 78.9847 20.9718 79.2887 19.8337C79.5928 18.6957 80.0656 17.8225 80.7083 17.2142C81.3509 16.606 82.1137 16.3012 82.9959 16.3012C83.8616 16.3012 84.4501 16.6178 84.7619 17.2498C85.073 17.882 85.0793 18.7595 84.78 19.8811ZM87.2735 14.3456C86.6113 13.8162 85.7683 13.5517 84.7454 13.5517C83.8475 13.5517 82.9928 13.7571 82.1836 14.1678C81.3721 14.5794 80.7146 15.1396 80.2102 15.8511L80.2216 15.7722L80.821 13.8579H80.1313V13.8596H77.3381L76.4512 17.1833C76.441 17.2219 76.4324 17.258 76.4221 17.297L72.7636 30.9998H76.331L78.1732 24.1015C78.3538 24.7172 78.7294 25.1997 79.2982 25.5471C79.8669 25.8947 80.5684 26.0686 81.4035 26.0686C82.4429 26.0686 83.4311 25.8163 84.3699 25.3101C85.3079 24.8047 86.1233 24.0814 86.8147 23.1408C87.5068 22.201 88.0175 21.1141 88.3466 19.8811C88.6758 18.6484 88.7441 17.5501 88.5532 16.5859C88.3623 15.622 87.9349 14.8754 87.2735 14.3456Z" fill="white"/>
<path fill-rule="evenodd" clip-rule="evenodd" d="M118.998 13.8631L119 13.8598H116.839C116.77 13.8598 116.709 13.8618 116.646 13.8631H115.525L114.951 14.665C114.905 14.7254 114.859 14.7862 114.81 14.8567L114.747 14.9496L110.19 21.3198L109.245 13.8598H105.511L107.402 25.1957L103.227 31H106.946L107.958 29.5616C107.988 29.5187 108.014 29.4836 108.045 29.4383L118.994 13.8681L119 13.8631H118.998Z" fill="white"/>
</svg>
