<svg width="89" height="40" viewBox="0 0 89 40" fill="none" xmlns="http://www.w3.org/2000/svg">
<path d="M46.5672 11.2527L42.5233 12.118V8.84923L46.5672 8V11.2527Z" fill="white"/>
<path d="M30.1336 9.85852L26.2024 10.6916L26.1863 23.5248C26.1863 25.896 27.9747 27.6423 30.3591 27.6423C31.6802 27.6423 32.6469 27.402 33.1786 27.1136V23.8613C32.663 24.0695 30.1175 24.8065 30.1175 22.4354V16.7477H33.1786V13.3352H30.1175L30.1336 9.85852Z" fill="white"/>
<path fill-rule="evenodd" clip-rule="evenodd" d="M73.1667 20.4004C73.1667 16.299 71.1689 13.0626 67.3505 13.0626C63.5161 13.0626 61.1961 16.299 61.1961 20.3684C61.1961 25.1909 63.935 27.6261 67.8661 27.6261C69.7833 27.6261 71.2333 27.1935 72.3289 26.5847V23.3804C71.2333 23.9252 69.9767 24.2616 68.3816 24.2616C66.8189 24.2616 65.4333 23.7169 65.2561 21.8264H73.1344C73.1344 21.7381 73.1402 21.5374 73.1469 21.3063L73.1469 21.3053C73.156 20.9916 73.1667 20.6216 73.1667 20.4004ZM65.2076 18.8786C65.2076 17.068 66.3193 16.3149 67.3343 16.3149C68.317 16.3149 69.3643 17.068 69.3643 18.8786H65.2076Z" fill="white"/>
<path d="M20.6122 16.5396C19.7583 16.5396 19.2428 16.7799 19.2428 17.4047C19.2428 18.0869 20.1301 18.387 21.2308 18.7594C23.0254 19.3663 25.3873 20.1652 25.3973 23.1244C25.3973 25.9922 23.0934 27.6424 19.7422 27.6424C18.3567 27.6424 16.8422 27.3701 15.3439 26.7292V22.9161C16.6972 23.6531 18.405 24.1978 19.7422 24.1978C20.6445 24.1978 21.2889 23.9575 21.2889 23.2205C21.2889 22.4648 20.3271 22.1194 19.1659 21.7024C17.3975 21.0673 15.1667 20.2662 15.1667 17.597C15.1667 14.7612 17.3417 13.0629 20.6122 13.0629C21.9495 13.0629 23.2706 13.2712 24.6078 13.7999V17.5649C23.3834 16.9081 21.8367 16.5396 20.6122 16.5396Z" fill="white"/>
<path d="M38.1895 14.5207L37.9317 13.3351H34.4517V27.3538H38.4795V17.8531C39.43 16.6195 41.0412 16.8438 41.5406 17.02V13.3351C41.025 13.1428 39.14 12.7904 38.1895 14.5207Z" fill="white"/>
<path d="M42.523 13.3353H46.5669V27.354H42.523V13.3353Z" fill="white"/>
<path fill-rule="evenodd" clip-rule="evenodd" d="M51.8191 14.3123C52.383 13.7996 53.398 13.0626 54.9769 13.0626C57.7963 13.0626 60.4547 15.594 60.4708 20.2402C60.4708 25.319 57.8446 27.6261 54.9607 27.6261C53.543 27.6261 52.6891 27.0333 52.1091 26.6168L52.093 31.1509L48.0652 32V13.319H51.6096L51.8191 14.3123ZM52.1092 23.3491C52.4958 23.7657 53.0597 24.1022 54.0103 24.1022C55.4925 24.1022 56.4914 22.4999 56.4914 20.3528C56.4914 18.2537 55.4764 16.6194 54.0103 16.6194C53.092 16.6194 52.512 16.9398 52.0931 17.4045L52.1092 23.3491Z" fill="white"/>
</svg>
